<mxfile host="app.diagrams.net" agent="Mozilla/5.0 (Windows NT 10.0; Win64; x64) AppleWebKit/537.36 (KHTML, like Gecko) Chrome/129.0.0.0 Safari/537.36" version="24.8.0">
  <diagram name="第 1 页" id="qmf8m7wfKg5UJTJKJN3y">
    <mxGraphModel dx="1195" dy="622" grid="1" gridSize="10" guides="1" tooltips="1" connect="1" arrows="1" fold="1" page="1" pageScale="1" pageWidth="827" pageHeight="1169" math="0" shadow="0">
      <root>
        <mxCell id="0" />
        <mxCell id="1" parent="0" />
        <mxCell id="dVnAxlk920_qLckwNKzv-1" value="" style="shape=table;startSize=0;container=1;collapsible=0;childLayout=tableLayout;fontSize=16;" parent="1" vertex="1">
          <mxGeometry x="140" y="230" width="410" height="432" as="geometry" />
        </mxCell>
        <mxCell id="dVnAxlk920_qLckwNKzv-44" style="shape=tableRow;horizontal=0;startSize=0;swimlaneHead=0;swimlaneBody=0;strokeColor=inherit;top=0;left=0;bottom=0;right=0;collapsible=0;dropTarget=0;fillColor=none;points=[[0,0.5],[1,0.5]];portConstraint=eastwest;fontSize=16;" parent="dVnAxlk920_qLckwNKzv-1" vertex="1">
          <mxGeometry width="410" height="72" as="geometry" />
        </mxCell>
        <mxCell id="dVnAxlk920_qLckwNKzv-45" style="shape=partialRectangle;html=1;whiteSpace=wrap;connectable=0;strokeColor=inherit;overflow=hidden;fillColor=none;top=0;left=0;bottom=0;right=0;pointerEvents=1;fontSize=16;" parent="dVnAxlk920_qLckwNKzv-44" vertex="1">
          <mxGeometry width="82" height="72" as="geometry">
            <mxRectangle width="82" height="72" as="alternateBounds" />
          </mxGeometry>
        </mxCell>
        <mxCell id="dVnAxlk920_qLckwNKzv-46" style="shape=partialRectangle;html=1;whiteSpace=wrap;connectable=0;strokeColor=inherit;overflow=hidden;fillColor=none;top=0;left=0;bottom=0;right=0;pointerEvents=1;fontSize=16;" parent="dVnAxlk920_qLckwNKzv-44" vertex="1">
          <mxGeometry x="82" width="82" height="72" as="geometry">
            <mxRectangle width="82" height="72" as="alternateBounds" />
          </mxGeometry>
        </mxCell>
        <mxCell id="dVnAxlk920_qLckwNKzv-47" style="shape=partialRectangle;html=1;whiteSpace=wrap;connectable=0;strokeColor=inherit;overflow=hidden;fillColor=none;top=0;left=0;bottom=0;right=0;pointerEvents=1;fontSize=16;" parent="dVnAxlk920_qLckwNKzv-44" vertex="1">
          <mxGeometry x="164" width="81" height="72" as="geometry">
            <mxRectangle width="81" height="72" as="alternateBounds" />
          </mxGeometry>
        </mxCell>
        <mxCell id="dVnAxlk920_qLckwNKzv-48" style="shape=partialRectangle;html=1;whiteSpace=wrap;connectable=0;strokeColor=inherit;overflow=hidden;fillColor=none;top=0;left=0;bottom=0;right=0;pointerEvents=1;fontSize=16;" parent="dVnAxlk920_qLckwNKzv-44" vertex="1">
          <mxGeometry x="245" width="83" height="72" as="geometry">
            <mxRectangle width="83" height="72" as="alternateBounds" />
          </mxGeometry>
        </mxCell>
        <mxCell id="dVnAxlk920_qLckwNKzv-49" style="shape=partialRectangle;html=1;whiteSpace=wrap;connectable=0;strokeColor=inherit;overflow=hidden;fillColor=none;top=0;left=0;bottom=0;right=0;pointerEvents=1;fontSize=16;" parent="dVnAxlk920_qLckwNKzv-44" vertex="1">
          <mxGeometry x="328" width="82" height="72" as="geometry">
            <mxRectangle width="82" height="72" as="alternateBounds" />
          </mxGeometry>
        </mxCell>
        <mxCell id="dVnAxlk920_qLckwNKzv-26" style="shape=tableRow;horizontal=0;startSize=0;swimlaneHead=0;swimlaneBody=0;strokeColor=inherit;top=0;left=0;bottom=0;right=0;collapsible=0;dropTarget=0;fillColor=none;points=[[0,0.5],[1,0.5]];portConstraint=eastwest;fontSize=16;" parent="dVnAxlk920_qLckwNKzv-1" vertex="1">
          <mxGeometry y="72" width="410" height="72" as="geometry" />
        </mxCell>
        <mxCell id="dVnAxlk920_qLckwNKzv-27" value="0" style="shape=partialRectangle;html=1;whiteSpace=wrap;connectable=0;strokeColor=inherit;overflow=hidden;fillColor=none;top=0;left=0;bottom=0;right=0;pointerEvents=1;fontSize=16;" parent="dVnAxlk920_qLckwNKzv-26" vertex="1">
          <mxGeometry width="82" height="72" as="geometry">
            <mxRectangle width="82" height="72" as="alternateBounds" />
          </mxGeometry>
        </mxCell>
        <mxCell id="dVnAxlk920_qLckwNKzv-34" style="shape=partialRectangle;html=1;whiteSpace=wrap;connectable=0;strokeColor=inherit;overflow=hidden;fillColor=none;top=0;left=0;bottom=0;right=0;pointerEvents=1;fontSize=16;" parent="dVnAxlk920_qLckwNKzv-26" vertex="1">
          <mxGeometry x="82" width="82" height="72" as="geometry">
            <mxRectangle width="82" height="72" as="alternateBounds" />
          </mxGeometry>
        </mxCell>
        <mxCell id="dVnAxlk920_qLckwNKzv-28" style="shape=partialRectangle;html=1;whiteSpace=wrap;connectable=0;strokeColor=inherit;overflow=hidden;fillColor=none;top=0;left=0;bottom=0;right=0;pointerEvents=1;fontSize=16;" parent="dVnAxlk920_qLckwNKzv-26" vertex="1">
          <mxGeometry x="164" width="81" height="72" as="geometry">
            <mxRectangle width="81" height="72" as="alternateBounds" />
          </mxGeometry>
        </mxCell>
        <mxCell id="dVnAxlk920_qLckwNKzv-29" style="shape=partialRectangle;html=1;whiteSpace=wrap;connectable=0;strokeColor=inherit;overflow=hidden;fillColor=none;top=0;left=0;bottom=0;right=0;pointerEvents=1;fontSize=16;" parent="dVnAxlk920_qLckwNKzv-26" vertex="1">
          <mxGeometry x="245" width="83" height="72" as="geometry">
            <mxRectangle width="83" height="72" as="alternateBounds" />
          </mxGeometry>
        </mxCell>
        <mxCell id="dVnAxlk920_qLckwNKzv-39" style="shape=partialRectangle;html=1;whiteSpace=wrap;connectable=0;strokeColor=inherit;overflow=hidden;fillColor=none;top=0;left=0;bottom=0;right=0;pointerEvents=1;fontSize=16;" parent="dVnAxlk920_qLckwNKzv-26" vertex="1">
          <mxGeometry x="328" width="82" height="72" as="geometry">
            <mxRectangle width="82" height="72" as="alternateBounds" />
          </mxGeometry>
        </mxCell>
        <mxCell id="dVnAxlk920_qLckwNKzv-14" value="" style="shape=tableRow;horizontal=0;startSize=0;swimlaneHead=0;swimlaneBody=0;strokeColor=inherit;top=0;left=0;bottom=0;right=0;collapsible=0;dropTarget=0;fillColor=none;points=[[0,0.5],[1,0.5]];portConstraint=eastwest;fontSize=16;" parent="dVnAxlk920_qLckwNKzv-1" vertex="1">
          <mxGeometry y="144" width="410" height="72" as="geometry" />
        </mxCell>
        <mxCell id="dVnAxlk920_qLckwNKzv-15" value="1" style="shape=partialRectangle;html=1;whiteSpace=wrap;connectable=0;strokeColor=inherit;overflow=hidden;fillColor=none;top=0;left=0;bottom=0;right=0;pointerEvents=1;fontSize=16;" parent="dVnAxlk920_qLckwNKzv-14" vertex="1">
          <mxGeometry width="82" height="72" as="geometry">
            <mxRectangle width="82" height="72" as="alternateBounds" />
          </mxGeometry>
        </mxCell>
        <mxCell id="dVnAxlk920_qLckwNKzv-35" style="shape=partialRectangle;html=1;whiteSpace=wrap;connectable=0;strokeColor=inherit;overflow=hidden;fillColor=none;top=0;left=0;bottom=0;right=0;pointerEvents=1;fontSize=16;" parent="dVnAxlk920_qLckwNKzv-14" vertex="1">
          <mxGeometry x="82" width="82" height="72" as="geometry">
            <mxRectangle width="82" height="72" as="alternateBounds" />
          </mxGeometry>
        </mxCell>
        <mxCell id="dVnAxlk920_qLckwNKzv-16" value="" style="shape=partialRectangle;html=1;whiteSpace=wrap;connectable=0;strokeColor=inherit;overflow=hidden;fillColor=none;top=0;left=0;bottom=0;right=0;pointerEvents=1;fontSize=16;" parent="dVnAxlk920_qLckwNKzv-14" vertex="1">
          <mxGeometry x="164" width="81" height="72" as="geometry">
            <mxRectangle width="81" height="72" as="alternateBounds" />
          </mxGeometry>
        </mxCell>
        <mxCell id="dVnAxlk920_qLckwNKzv-17" value="" style="shape=partialRectangle;html=1;whiteSpace=wrap;connectable=0;strokeColor=inherit;overflow=hidden;fillColor=none;top=0;left=0;bottom=0;right=0;pointerEvents=1;fontSize=16;" parent="dVnAxlk920_qLckwNKzv-14" vertex="1">
          <mxGeometry x="245" width="83" height="72" as="geometry">
            <mxRectangle width="83" height="72" as="alternateBounds" />
          </mxGeometry>
        </mxCell>
        <mxCell id="dVnAxlk920_qLckwNKzv-40" style="shape=partialRectangle;html=1;whiteSpace=wrap;connectable=0;strokeColor=inherit;overflow=hidden;fillColor=none;top=0;left=0;bottom=0;right=0;pointerEvents=1;fontSize=16;" parent="dVnAxlk920_qLckwNKzv-14" vertex="1">
          <mxGeometry x="328" width="82" height="72" as="geometry">
            <mxRectangle width="82" height="72" as="alternateBounds" />
          </mxGeometry>
        </mxCell>
        <mxCell id="dVnAxlk920_qLckwNKzv-2" value="" style="shape=tableRow;horizontal=0;startSize=0;swimlaneHead=0;swimlaneBody=0;strokeColor=inherit;top=0;left=0;bottom=0;right=0;collapsible=0;dropTarget=0;fillColor=none;points=[[0,0.5],[1,0.5]];portConstraint=eastwest;fontSize=16;" parent="dVnAxlk920_qLckwNKzv-1" vertex="1">
          <mxGeometry y="216" width="410" height="73" as="geometry" />
        </mxCell>
        <mxCell id="dVnAxlk920_qLckwNKzv-3" value="..." style="shape=partialRectangle;html=1;whiteSpace=wrap;connectable=0;strokeColor=inherit;overflow=hidden;fillColor=none;top=0;left=0;bottom=0;right=0;pointerEvents=1;fontSize=16;" parent="dVnAxlk920_qLckwNKzv-2" vertex="1">
          <mxGeometry width="82" height="73" as="geometry">
            <mxRectangle width="82" height="73" as="alternateBounds" />
          </mxGeometry>
        </mxCell>
        <mxCell id="dVnAxlk920_qLckwNKzv-36" style="shape=partialRectangle;html=1;whiteSpace=wrap;connectable=0;strokeColor=inherit;overflow=hidden;fillColor=none;top=0;left=0;bottom=0;right=0;pointerEvents=1;fontSize=16;" parent="dVnAxlk920_qLckwNKzv-2" vertex="1">
          <mxGeometry x="82" width="82" height="73" as="geometry">
            <mxRectangle width="82" height="73" as="alternateBounds" />
          </mxGeometry>
        </mxCell>
        <mxCell id="dVnAxlk920_qLckwNKzv-4" value="" style="shape=partialRectangle;html=1;whiteSpace=wrap;connectable=0;strokeColor=inherit;overflow=hidden;fillColor=none;top=0;left=0;bottom=0;right=0;pointerEvents=1;fontSize=16;" parent="dVnAxlk920_qLckwNKzv-2" vertex="1">
          <mxGeometry x="164" width="81" height="73" as="geometry">
            <mxRectangle width="81" height="73" as="alternateBounds" />
          </mxGeometry>
        </mxCell>
        <mxCell id="dVnAxlk920_qLckwNKzv-5" value="" style="shape=partialRectangle;html=1;whiteSpace=wrap;connectable=0;strokeColor=inherit;overflow=hidden;fillColor=none;top=0;left=0;bottom=0;right=0;pointerEvents=1;fontSize=16;" parent="dVnAxlk920_qLckwNKzv-2" vertex="1">
          <mxGeometry x="245" width="83" height="73" as="geometry">
            <mxRectangle width="83" height="73" as="alternateBounds" />
          </mxGeometry>
        </mxCell>
        <mxCell id="dVnAxlk920_qLckwNKzv-41" style="shape=partialRectangle;html=1;whiteSpace=wrap;connectable=0;strokeColor=inherit;overflow=hidden;fillColor=none;top=0;left=0;bottom=0;right=0;pointerEvents=1;fontSize=16;" parent="dVnAxlk920_qLckwNKzv-2" vertex="1">
          <mxGeometry x="328" width="82" height="73" as="geometry">
            <mxRectangle width="82" height="73" as="alternateBounds" />
          </mxGeometry>
        </mxCell>
        <mxCell id="dVnAxlk920_qLckwNKzv-6" value="" style="shape=tableRow;horizontal=0;startSize=0;swimlaneHead=0;swimlaneBody=0;strokeColor=inherit;top=0;left=0;bottom=0;right=0;collapsible=0;dropTarget=0;fillColor=none;points=[[0,0.5],[1,0.5]];portConstraint=eastwest;fontSize=16;" parent="dVnAxlk920_qLckwNKzv-1" vertex="1">
          <mxGeometry y="289" width="410" height="71" as="geometry" />
        </mxCell>
        <mxCell id="dVnAxlk920_qLckwNKzv-7" value="254" style="shape=partialRectangle;html=1;whiteSpace=wrap;connectable=0;strokeColor=inherit;overflow=hidden;fillColor=none;top=0;left=0;bottom=0;right=0;pointerEvents=1;fontSize=16;" parent="dVnAxlk920_qLckwNKzv-6" vertex="1">
          <mxGeometry width="82" height="71" as="geometry">
            <mxRectangle width="82" height="71" as="alternateBounds" />
          </mxGeometry>
        </mxCell>
        <mxCell id="dVnAxlk920_qLckwNKzv-37" style="shape=partialRectangle;html=1;whiteSpace=wrap;connectable=0;strokeColor=inherit;overflow=hidden;fillColor=none;top=0;left=0;bottom=0;right=0;pointerEvents=1;fontSize=16;" parent="dVnAxlk920_qLckwNKzv-6" vertex="1">
          <mxGeometry x="82" width="82" height="71" as="geometry">
            <mxRectangle width="82" height="71" as="alternateBounds" />
          </mxGeometry>
        </mxCell>
        <mxCell id="dVnAxlk920_qLckwNKzv-8" value="" style="shape=partialRectangle;html=1;whiteSpace=wrap;connectable=0;strokeColor=inherit;overflow=hidden;fillColor=none;top=0;left=0;bottom=0;right=0;pointerEvents=1;fontSize=16;" parent="dVnAxlk920_qLckwNKzv-6" vertex="1">
          <mxGeometry x="164" width="81" height="71" as="geometry">
            <mxRectangle width="81" height="71" as="alternateBounds" />
          </mxGeometry>
        </mxCell>
        <mxCell id="dVnAxlk920_qLckwNKzv-9" value="" style="shape=partialRectangle;html=1;whiteSpace=wrap;connectable=0;strokeColor=inherit;overflow=hidden;fillColor=none;top=0;left=0;bottom=0;right=0;pointerEvents=1;fontSize=16;" parent="dVnAxlk920_qLckwNKzv-6" vertex="1">
          <mxGeometry x="245" width="83" height="71" as="geometry">
            <mxRectangle width="83" height="71" as="alternateBounds" />
          </mxGeometry>
        </mxCell>
        <mxCell id="dVnAxlk920_qLckwNKzv-42" style="shape=partialRectangle;html=1;whiteSpace=wrap;connectable=0;strokeColor=inherit;overflow=hidden;fillColor=none;top=0;left=0;bottom=0;right=0;pointerEvents=1;fontSize=16;" parent="dVnAxlk920_qLckwNKzv-6" vertex="1">
          <mxGeometry x="328" width="82" height="71" as="geometry">
            <mxRectangle width="82" height="71" as="alternateBounds" />
          </mxGeometry>
        </mxCell>
        <mxCell id="dVnAxlk920_qLckwNKzv-10" value="" style="shape=tableRow;horizontal=0;startSize=0;swimlaneHead=0;swimlaneBody=0;strokeColor=inherit;top=0;left=0;bottom=0;right=0;collapsible=0;dropTarget=0;fillColor=none;points=[[0,0.5],[1,0.5]];portConstraint=eastwest;fontSize=16;" parent="dVnAxlk920_qLckwNKzv-1" vertex="1">
          <mxGeometry y="360" width="410" height="72" as="geometry" />
        </mxCell>
        <mxCell id="dVnAxlk920_qLckwNKzv-11" value="255" style="shape=partialRectangle;html=1;whiteSpace=wrap;connectable=0;strokeColor=inherit;overflow=hidden;fillColor=none;top=0;left=0;bottom=0;right=0;pointerEvents=1;fontSize=16;" parent="dVnAxlk920_qLckwNKzv-10" vertex="1">
          <mxGeometry width="82" height="72" as="geometry">
            <mxRectangle width="82" height="72" as="alternateBounds" />
          </mxGeometry>
        </mxCell>
        <mxCell id="dVnAxlk920_qLckwNKzv-38" style="shape=partialRectangle;html=1;whiteSpace=wrap;connectable=0;strokeColor=inherit;overflow=hidden;fillColor=none;top=0;left=0;bottom=0;right=0;pointerEvents=1;fontSize=16;" parent="dVnAxlk920_qLckwNKzv-10" vertex="1">
          <mxGeometry x="82" width="82" height="72" as="geometry">
            <mxRectangle width="82" height="72" as="alternateBounds" />
          </mxGeometry>
        </mxCell>
        <mxCell id="dVnAxlk920_qLckwNKzv-12" value="" style="shape=partialRectangle;html=1;whiteSpace=wrap;connectable=0;strokeColor=inherit;overflow=hidden;fillColor=none;top=0;left=0;bottom=0;right=0;pointerEvents=1;fontSize=16;" parent="dVnAxlk920_qLckwNKzv-10" vertex="1">
          <mxGeometry x="164" width="81" height="72" as="geometry">
            <mxRectangle width="81" height="72" as="alternateBounds" />
          </mxGeometry>
        </mxCell>
        <mxCell id="dVnAxlk920_qLckwNKzv-13" value="" style="shape=partialRectangle;html=1;whiteSpace=wrap;connectable=0;strokeColor=inherit;overflow=hidden;fillColor=none;top=0;left=0;bottom=0;right=0;pointerEvents=1;fontSize=16;" parent="dVnAxlk920_qLckwNKzv-10" vertex="1">
          <mxGeometry x="245" width="83" height="72" as="geometry">
            <mxRectangle width="83" height="72" as="alternateBounds" />
          </mxGeometry>
        </mxCell>
        <mxCell id="dVnAxlk920_qLckwNKzv-43" style="shape=partialRectangle;html=1;whiteSpace=wrap;connectable=0;strokeColor=inherit;overflow=hidden;fillColor=none;top=0;left=0;bottom=0;right=0;pointerEvents=1;fontSize=16;" parent="dVnAxlk920_qLckwNKzv-10" vertex="1">
          <mxGeometry x="328" width="82" height="72" as="geometry">
            <mxRectangle width="82" height="72" as="alternateBounds" />
          </mxGeometry>
        </mxCell>
        <mxCell id="LEAcJbliSVRdhs6wyu_d-33" value="&lt;font face=&quot;Verdana&quot;&gt;Physical Graph&lt;/font&gt;" style="text;html=1;align=center;verticalAlign=middle;whiteSpace=wrap;rounded=0;fillColor=default;" vertex="1" parent="1">
          <mxGeometry x="237.5" y="760" width="140" height="20" as="geometry" />
        </mxCell>
        <mxCell id="LEAcJbliSVRdhs6wyu_d-35" value="" style="rounded=1;whiteSpace=wrap;html=1;" vertex="1" parent="1">
          <mxGeometry x="510" y="860" width="140" height="170" as="geometry" />
        </mxCell>
        <mxCell id="LEAcJbliSVRdhs6wyu_d-36" value="&lt;font face=&quot;Verdana&quot;&gt;Node0&lt;/font&gt;" style="text;html=1;align=center;verticalAlign=middle;whiteSpace=wrap;rounded=0;fillColor=default;" vertex="1" parent="1">
          <mxGeometry x="545" y="867.82" width="70" height="20" as="geometry" />
        </mxCell>
        <mxCell id="LEAcJbliSVRdhs6wyu_d-37" value="&lt;font face=&quot;Verdana&quot;&gt;Load:4&lt;/font&gt;" style="text;html=1;align=center;verticalAlign=middle;whiteSpace=wrap;rounded=0;fillColor=default;" vertex="1" parent="1">
          <mxGeometry x="545" y="1040" width="70" height="20" as="geometry" />
        </mxCell>
        <mxCell id="LEAcJbliSVRdhs6wyu_d-38" value="" style="rounded=1;whiteSpace=wrap;html=1;" vertex="1" parent="1">
          <mxGeometry x="680" y="857.82" width="140" height="172.18" as="geometry" />
        </mxCell>
        <mxCell id="LEAcJbliSVRdhs6wyu_d-39" value="&lt;font face=&quot;Verdana&quot;&gt;Node1&lt;/font&gt;" style="text;html=1;align=center;verticalAlign=middle;whiteSpace=wrap;rounded=0;fillColor=default;" vertex="1" parent="1">
          <mxGeometry x="715" y="867.82" width="70" height="20" as="geometry" />
        </mxCell>
        <mxCell id="LEAcJbliSVRdhs6wyu_d-40" value="&lt;font face=&quot;Verdana&quot;&gt;Load:4&lt;/font&gt;" style="text;html=1;align=center;verticalAlign=middle;whiteSpace=wrap;rounded=0;fillColor=default;" vertex="1" parent="1">
          <mxGeometry x="715" y="1040" width="70" height="20" as="geometry" />
        </mxCell>
        <mxCell id="LEAcJbliSVRdhs6wyu_d-41" value="" style="rounded=1;whiteSpace=wrap;html=1;" vertex="1" parent="1">
          <mxGeometry x="840" y="857.82" width="130" height="172.18" as="geometry" />
        </mxCell>
        <mxCell id="LEAcJbliSVRdhs6wyu_d-42" value="&lt;font face=&quot;Verdana&quot;&gt;Node2&lt;/font&gt;" style="text;html=1;align=center;verticalAlign=middle;whiteSpace=wrap;rounded=0;fillColor=default;" vertex="1" parent="1">
          <mxGeometry x="865" y="867.82" width="70" height="20" as="geometry" />
        </mxCell>
        <mxCell id="LEAcJbliSVRdhs6wyu_d-43" value="&lt;font face=&quot;Verdana&quot;&gt;Load:4&lt;/font&gt;" style="text;html=1;align=center;verticalAlign=middle;whiteSpace=wrap;rounded=0;fillColor=default;" vertex="1" parent="1">
          <mxGeometry x="870" y="1040" width="70" height="20" as="geometry" />
        </mxCell>
        <mxCell id="LEAcJbliSVRdhs6wyu_d-58" value="" style="group" vertex="1" connectable="0" parent="1">
          <mxGeometry x="860" y="900" width="40" height="113.11999999999989" as="geometry" />
        </mxCell>
        <mxCell id="LEAcJbliSVRdhs6wyu_d-51" value="" style="rounded=1;whiteSpace=wrap;html=1;fillColor=none;rotation=90;" vertex="1" parent="LEAcJbliSVRdhs6wyu_d-58">
          <mxGeometry x="-36.56" y="36.559999999999945" width="113.12" height="40" as="geometry" />
        </mxCell>
        <mxCell id="LEAcJbliSVRdhs6wyu_d-52" value="" style="ellipse;whiteSpace=wrap;html=1;aspect=fixed;fillColor=#fff2cc;strokeColor=#d6b656;" vertex="1" parent="LEAcJbliSVRdhs6wyu_d-58">
          <mxGeometry x="10" y="6.559999999999945" width="20" height="20" as="geometry" />
        </mxCell>
        <mxCell id="LEAcJbliSVRdhs6wyu_d-53" value="" style="endArrow=none;html=1;rounded=0;entryX=0.5;entryY=1;entryDx=0;entryDy=0;" edge="1" parent="LEAcJbliSVRdhs6wyu_d-58" source="LEAcJbliSVRdhs6wyu_d-56" target="LEAcJbliSVRdhs6wyu_d-52">
          <mxGeometry width="50" height="50" relative="1" as="geometry">
            <mxPoint x="20" y="56.559999999999945" as="sourcePoint" />
            <mxPoint x="16" y="36.559999999999945" as="targetPoint" />
          </mxGeometry>
        </mxCell>
        <mxCell id="LEAcJbliSVRdhs6wyu_d-54" value="" style="ellipse;whiteSpace=wrap;html=1;aspect=fixed;fillColor=#fff2cc;strokeColor=#d6b656;" vertex="1" parent="LEAcJbliSVRdhs6wyu_d-58">
          <mxGeometry x="10" y="85.55999999999995" width="20" height="20" as="geometry" />
        </mxCell>
        <mxCell id="LEAcJbliSVRdhs6wyu_d-55" value="" style="endArrow=none;html=1;rounded=0;entryX=0.5;entryY=1;entryDx=0;entryDy=0;" edge="1" parent="LEAcJbliSVRdhs6wyu_d-58" target="LEAcJbliSVRdhs6wyu_d-56">
          <mxGeometry width="50" height="50" relative="1" as="geometry">
            <mxPoint x="20" y="56.559999999999945" as="sourcePoint" />
            <mxPoint x="20" y="26.559999999999945" as="targetPoint" />
          </mxGeometry>
        </mxCell>
        <mxCell id="LEAcJbliSVRdhs6wyu_d-56" value="" style="ellipse;whiteSpace=wrap;html=1;aspect=fixed;fillColor=#fff2cc;strokeColor=#d6b656;" vertex="1" parent="LEAcJbliSVRdhs6wyu_d-58">
          <mxGeometry x="10" y="46.559999999999945" width="20" height="20" as="geometry" />
        </mxCell>
        <mxCell id="LEAcJbliSVRdhs6wyu_d-57" value="" style="endArrow=none;html=1;rounded=0;entryX=0.5;entryY=1;entryDx=0;entryDy=0;exitX=0.5;exitY=0;exitDx=0;exitDy=0;" edge="1" parent="LEAcJbliSVRdhs6wyu_d-58" source="LEAcJbliSVRdhs6wyu_d-54" target="LEAcJbliSVRdhs6wyu_d-56">
          <mxGeometry width="50" height="50" relative="1" as="geometry">
            <mxPoint x="19.58000000000004" y="86.55999999999995" as="sourcePoint" />
            <mxPoint x="19.58000000000004" y="66.55999999999995" as="targetPoint" />
          </mxGeometry>
        </mxCell>
        <mxCell id="LEAcJbliSVRdhs6wyu_d-61" value="" style="group" vertex="1" connectable="0" parent="1">
          <mxGeometry x="910" y="936.2500000000001" width="39.36999999999989" height="33.75" as="geometry" />
        </mxCell>
        <mxCell id="LEAcJbliSVRdhs6wyu_d-59" value="" style="rounded=1;whiteSpace=wrap;html=1;fillColor=none;rotation=90;" vertex="1" parent="LEAcJbliSVRdhs6wyu_d-61">
          <mxGeometry x="2.8099999999999454" y="-2.8099999999999454" width="33.75" height="39.37" as="geometry" />
        </mxCell>
        <mxCell id="LEAcJbliSVRdhs6wyu_d-60" value="" style="ellipse;whiteSpace=wrap;html=1;aspect=fixed;fillColor=#e1d5e7;strokeColor=#9673a6;" vertex="1" parent="LEAcJbliSVRdhs6wyu_d-61">
          <mxGeometry x="9.67999999999995" y="6.869999999999891" width="20" height="20" as="geometry" />
        </mxCell>
        <mxCell id="LEAcJbliSVRdhs6wyu_d-66" value="" style="group" vertex="1" connectable="0" parent="1">
          <mxGeometry x="700" y="910" width="40" height="95" as="geometry" />
        </mxCell>
        <mxCell id="LEAcJbliSVRdhs6wyu_d-62" value="" style="rounded=1;whiteSpace=wrap;html=1;fillColor=none;rotation=90;" vertex="1" parent="LEAcJbliSVRdhs6wyu_d-66">
          <mxGeometry x="-27.5" y="27.5" width="95" height="40" as="geometry" />
        </mxCell>
        <mxCell id="LEAcJbliSVRdhs6wyu_d-63" value="" style="ellipse;whiteSpace=wrap;html=1;aspect=fixed;fillColor=#d5e8d4;strokeColor=#82b366;" vertex="1" parent="LEAcJbliSVRdhs6wyu_d-66">
          <mxGeometry x="10" y="5" width="20" height="20" as="geometry" />
        </mxCell>
        <mxCell id="LEAcJbliSVRdhs6wyu_d-64" value="" style="ellipse;whiteSpace=wrap;html=1;aspect=fixed;fillColor=#d5e8d4;strokeColor=#82b366;" vertex="1" parent="LEAcJbliSVRdhs6wyu_d-66">
          <mxGeometry x="10" y="65" width="20" height="20" as="geometry" />
        </mxCell>
        <mxCell id="LEAcJbliSVRdhs6wyu_d-65" value="" style="endArrow=none;html=1;rounded=0;exitX=0.5;exitY=0;exitDx=0;exitDy=0;entryX=0.5;entryY=1;entryDx=0;entryDy=0;" edge="1" parent="LEAcJbliSVRdhs6wyu_d-66" source="LEAcJbliSVRdhs6wyu_d-64" target="LEAcJbliSVRdhs6wyu_d-63">
          <mxGeometry width="50" height="50" relative="1" as="geometry">
            <mxPoint x="-20" y="81" as="sourcePoint" />
            <mxPoint x="6" y="35" as="targetPoint" />
          </mxGeometry>
        </mxCell>
        <mxCell id="LEAcJbliSVRdhs6wyu_d-71" value="" style="group" vertex="1" connectable="0" parent="1">
          <mxGeometry x="760" y="910" width="40" height="95" as="geometry" />
        </mxCell>
        <mxCell id="LEAcJbliSVRdhs6wyu_d-67" value="" style="rounded=1;whiteSpace=wrap;html=1;fillColor=none;rotation=90;" vertex="1" parent="LEAcJbliSVRdhs6wyu_d-71">
          <mxGeometry x="-27.5" y="27.5" width="95" height="40" as="geometry" />
        </mxCell>
        <mxCell id="LEAcJbliSVRdhs6wyu_d-68" value="" style="ellipse;whiteSpace=wrap;html=1;aspect=fixed;fillColor=#ffe6cc;strokeColor=#d79b00;" vertex="1" parent="LEAcJbliSVRdhs6wyu_d-71">
          <mxGeometry x="10" y="7.5" width="20" height="20" as="geometry" />
        </mxCell>
        <mxCell id="LEAcJbliSVRdhs6wyu_d-69" value="" style="ellipse;whiteSpace=wrap;html=1;aspect=fixed;fillColor=#ffe6cc;strokeColor=#d79b00;" vertex="1" parent="LEAcJbliSVRdhs6wyu_d-71">
          <mxGeometry x="10" y="67.5" width="20" height="20" as="geometry" />
        </mxCell>
        <mxCell id="LEAcJbliSVRdhs6wyu_d-70" value="" style="endArrow=none;html=1;rounded=0;exitX=0.5;exitY=0;exitDx=0;exitDy=0;entryX=0.5;entryY=1;entryDx=0;entryDy=0;" edge="1" parent="LEAcJbliSVRdhs6wyu_d-71" source="LEAcJbliSVRdhs6wyu_d-69" target="LEAcJbliSVRdhs6wyu_d-68">
          <mxGeometry width="50" height="50" relative="1" as="geometry">
            <mxPoint x="19.579999999999984" y="67.5" as="sourcePoint" />
            <mxPoint x="19.579999999999984" y="27.5" as="targetPoint" />
          </mxGeometry>
        </mxCell>
        <mxCell id="LEAcJbliSVRdhs6wyu_d-76" value="" style="group" vertex="1" connectable="0" parent="1">
          <mxGeometry x="590" y="899.9999999999999" width="39.370000000000005" height="113.75" as="geometry" />
        </mxCell>
        <mxCell id="LEAcJbliSVRdhs6wyu_d-72" value="" style="ellipse;whiteSpace=wrap;html=1;aspect=fixed;fillColor=#f8cecc;strokeColor=#b85450;" vertex="1" parent="LEAcJbliSVRdhs6wyu_d-76">
          <mxGeometry x="9.680000000000064" y="14.06000000000006" width="20" height="20" as="geometry" />
        </mxCell>
        <mxCell id="LEAcJbliSVRdhs6wyu_d-73" value="" style="ellipse;whiteSpace=wrap;html=1;aspect=fixed;fillColor=#f8cecc;strokeColor=#b85450;" vertex="1" parent="LEAcJbliSVRdhs6wyu_d-76">
          <mxGeometry x="9.680000000000064" y="84.06000000000006" width="20" height="20" as="geometry" />
        </mxCell>
        <mxCell id="LEAcJbliSVRdhs6wyu_d-74" value="" style="endArrow=none;html=1;rounded=0;exitX=0.5;exitY=0;exitDx=0;exitDy=0;" edge="1" parent="LEAcJbliSVRdhs6wyu_d-76" source="LEAcJbliSVRdhs6wyu_d-73">
          <mxGeometry width="50" height="50" relative="1" as="geometry">
            <mxPoint x="62.680000000000064" y="97.06000000000006" as="sourcePoint" />
            <mxPoint x="19.680000000000064" y="34.06000000000006" as="targetPoint" />
          </mxGeometry>
        </mxCell>
        <mxCell id="LEAcJbliSVRdhs6wyu_d-75" value="" style="rounded=1;whiteSpace=wrap;html=1;fillColor=none;rotation=90;" vertex="1" parent="LEAcJbliSVRdhs6wyu_d-76">
          <mxGeometry x="-37.18999999999994" y="37.190000000000055" width="113.75" height="39.37" as="geometry" />
        </mxCell>
        <mxCell id="LEAcJbliSVRdhs6wyu_d-86" value="" style="group" vertex="1" connectable="0" parent="1">
          <mxGeometry x="530" y="900" width="39.370000000000005" height="113.75" as="geometry" />
        </mxCell>
        <mxCell id="LEAcJbliSVRdhs6wyu_d-85" value="" style="rounded=1;whiteSpace=wrap;html=1;fillColor=none;rotation=90;" vertex="1" parent="LEAcJbliSVRdhs6wyu_d-86">
          <mxGeometry x="-37.190000000000055" y="37.18999999999994" width="113.75" height="39.37" as="geometry" />
        </mxCell>
        <mxCell id="LEAcJbliSVRdhs6wyu_d-82" value="" style="ellipse;whiteSpace=wrap;html=1;aspect=fixed;fillColor=#dae8fc;strokeColor=#6c8ebf;" vertex="1" parent="LEAcJbliSVRdhs6wyu_d-86">
          <mxGeometry x="9.67999999999995" y="14.059999999999945" width="20" height="20" as="geometry" />
        </mxCell>
        <mxCell id="LEAcJbliSVRdhs6wyu_d-83" value="" style="ellipse;whiteSpace=wrap;html=1;aspect=fixed;fillColor=#dae8fc;strokeColor=#6c8ebf;" vertex="1" parent="LEAcJbliSVRdhs6wyu_d-86">
          <mxGeometry x="9.67999999999995" y="84.05999999999995" width="20" height="20" as="geometry" />
        </mxCell>
        <mxCell id="LEAcJbliSVRdhs6wyu_d-84" value="" style="endArrow=none;html=1;rounded=0;exitX=0.5;exitY=0;exitDx=0;exitDy=0;" edge="1" parent="LEAcJbliSVRdhs6wyu_d-86" source="LEAcJbliSVRdhs6wyu_d-83">
          <mxGeometry width="50" height="50" relative="1" as="geometry">
            <mxPoint x="62.67999999999995" y="97.05999999999995" as="sourcePoint" />
            <mxPoint x="19.67999999999995" y="34.059999999999945" as="targetPoint" />
          </mxGeometry>
        </mxCell>
        <mxCell id="LEAcJbliSVRdhs6wyu_d-87" value="" style="shape=flexArrow;endArrow=classic;html=1;rounded=0;width=9.166666666666668;endSize=4.441666666666667;endWidth=11.527777777777777;" edge="1" parent="1">
          <mxGeometry width="50" height="50" relative="1" as="geometry">
            <mxPoint x="410" y="971.67" as="sourcePoint" />
            <mxPoint x="500" y="972" as="targetPoint" />
          </mxGeometry>
        </mxCell>
        <mxCell id="LEAcJbliSVRdhs6wyu_d-88" value="" style="group" vertex="1" connectable="0" parent="1">
          <mxGeometry x="190" y="782.824855787278" width="199.68999999999994" height="393.73514421272193" as="geometry" />
        </mxCell>
        <mxCell id="LEAcJbliSVRdhs6wyu_d-18" value="" style="rounded=1;whiteSpace=wrap;html=1;fillColor=none;rotation=90;" vertex="1" parent="LEAcJbliSVRdhs6wyu_d-88">
          <mxGeometry x="52.5" y="167.175144212722" width="95" height="40" as="geometry" />
        </mxCell>
        <mxCell id="LEAcJbliSVRdhs6wyu_d-16" value="" style="rounded=1;whiteSpace=wrap;html=1;fillColor=none;rotation=90;" vertex="1" parent="LEAcJbliSVRdhs6wyu_d-88">
          <mxGeometry x="-27.5" y="169.675144212722" width="95" height="40" as="geometry" />
        </mxCell>
        <mxCell id="LEAcJbliSVRdhs6wyu_d-32" value="" style="rounded=1;whiteSpace=wrap;html=1;fillColor=none;rotation=90;" vertex="1" parent="LEAcJbliSVRdhs6wyu_d-88">
          <mxGeometry x="163.13" y="227.49514421272215" width="33.75" height="39.37" as="geometry" />
        </mxCell>
        <mxCell id="LEAcJbliSVRdhs6wyu_d-28" value="" style="rounded=1;whiteSpace=wrap;html=1;fillColor=none;rotation=90;" vertex="1" parent="LEAcJbliSVRdhs6wyu_d-88">
          <mxGeometry x="3.4399999999999977" y="317.175144212722" width="113.12" height="40" as="geometry" />
        </mxCell>
        <mxCell id="LHpBmARA8mhgAHbVRTis-1" value="" style="ellipse;whiteSpace=wrap;html=1;aspect=fixed;fillColor=#dae8fc;strokeColor=#6c8ebf;" parent="LEAcJbliSVRdhs6wyu_d-88" vertex="1">
          <mxGeometry x="120" y="17.17514421272199" width="20" height="20" as="geometry" />
        </mxCell>
        <mxCell id="LHpBmARA8mhgAHbVRTis-2" value="" style="ellipse;whiteSpace=wrap;html=1;aspect=fixed;fillColor=#dae8fc;strokeColor=#6c8ebf;" parent="LEAcJbliSVRdhs6wyu_d-88" vertex="1">
          <mxGeometry x="50" y="87.17514421272199" width="20" height="20" as="geometry" />
        </mxCell>
        <mxCell id="LHpBmARA8mhgAHbVRTis-3" value="" style="ellipse;whiteSpace=wrap;html=1;aspect=fixed;fillColor=#d5e8d4;strokeColor=#82b366;" parent="LEAcJbliSVRdhs6wyu_d-88" vertex="1">
          <mxGeometry x="10" y="147.175144212722" width="20" height="20" as="geometry" />
        </mxCell>
        <mxCell id="LHpBmARA8mhgAHbVRTis-4" value="" style="ellipse;whiteSpace=wrap;html=1;aspect=fixed;fillColor=#d5e8d4;strokeColor=#82b366;" parent="LEAcJbliSVRdhs6wyu_d-88" vertex="1">
          <mxGeometry x="10" y="207.175144212722" width="20" height="20" as="geometry" />
        </mxCell>
        <mxCell id="LHpBmARA8mhgAHbVRTis-5" value="" style="ellipse;whiteSpace=wrap;html=1;aspect=fixed;fillColor=#ffe6cc;strokeColor=#d79b00;" parent="LEAcJbliSVRdhs6wyu_d-88" vertex="1">
          <mxGeometry x="90" y="147.175144212722" width="20" height="20" as="geometry" />
        </mxCell>
        <mxCell id="LHpBmARA8mhgAHbVRTis-6" value="" style="ellipse;whiteSpace=wrap;html=1;aspect=fixed;fillColor=#ffe6cc;strokeColor=#d79b00;" parent="LEAcJbliSVRdhs6wyu_d-88" vertex="1">
          <mxGeometry x="90" y="207.175144212722" width="20" height="20" as="geometry" />
        </mxCell>
        <mxCell id="LHpBmARA8mhgAHbVRTis-8" value="" style="endArrow=none;html=1;rounded=0;exitX=1;exitY=0;exitDx=0;exitDy=0;entryX=0;entryY=1;entryDx=0;entryDy=0;" parent="LEAcJbliSVRdhs6wyu_d-88" source="LHpBmARA8mhgAHbVRTis-2" edge="1" target="LHpBmARA8mhgAHbVRTis-1">
          <mxGeometry width="50" height="50" relative="1" as="geometry">
            <mxPoint x="70" y="87.17514421272199" as="sourcePoint" />
            <mxPoint x="120" y="37.17514421272199" as="targetPoint" />
          </mxGeometry>
        </mxCell>
        <mxCell id="LEAcJbliSVRdhs6wyu_d-1" value="" style="endArrow=none;html=1;rounded=0;exitX=1;exitY=0;exitDx=0;exitDy=0;entryX=0;entryY=1;entryDx=0;entryDy=0;" edge="1" parent="LEAcJbliSVRdhs6wyu_d-88" source="LHpBmARA8mhgAHbVRTis-3" target="LHpBmARA8mhgAHbVRTis-2">
          <mxGeometry width="50" height="50" relative="1" as="geometry">
            <mxPoint x="-26" y="153.175144212722" as="sourcePoint" />
            <mxPoint x="30" y="107.17514421272199" as="targetPoint" />
          </mxGeometry>
        </mxCell>
        <mxCell id="LEAcJbliSVRdhs6wyu_d-2" value="" style="endArrow=none;html=1;rounded=0;exitX=0;exitY=0;exitDx=0;exitDy=0;entryX=1;entryY=1;entryDx=0;entryDy=0;" edge="1" parent="LEAcJbliSVRdhs6wyu_d-88" source="LHpBmARA8mhgAHbVRTis-5" target="LHpBmARA8mhgAHbVRTis-2">
          <mxGeometry width="50" height="50" relative="1" as="geometry">
            <mxPoint x="37" y="160.175144212722" as="sourcePoint" />
            <mxPoint x="63" y="114.17514421272199" as="targetPoint" />
          </mxGeometry>
        </mxCell>
        <mxCell id="LEAcJbliSVRdhs6wyu_d-3" value="" style="endArrow=none;html=1;rounded=0;exitX=0.5;exitY=0;exitDx=0;exitDy=0;entryX=0.5;entryY=1;entryDx=0;entryDy=0;" edge="1" parent="LEAcJbliSVRdhs6wyu_d-88" source="LHpBmARA8mhgAHbVRTis-4" target="LHpBmARA8mhgAHbVRTis-3">
          <mxGeometry width="50" height="50" relative="1" as="geometry">
            <mxPoint x="-20" y="223.175144212722" as="sourcePoint" />
            <mxPoint x="6" y="177.175144212722" as="targetPoint" />
          </mxGeometry>
        </mxCell>
        <mxCell id="LEAcJbliSVRdhs6wyu_d-4" value="" style="endArrow=none;html=1;rounded=0;exitX=0.5;exitY=0;exitDx=0;exitDy=0;entryX=0.5;entryY=1;entryDx=0;entryDy=0;" edge="1" parent="LEAcJbliSVRdhs6wyu_d-88" source="LHpBmARA8mhgAHbVRTis-6" target="LHpBmARA8mhgAHbVRTis-5">
          <mxGeometry width="50" height="50" relative="1" as="geometry">
            <mxPoint x="99.57999999999998" y="207.175144212722" as="sourcePoint" />
            <mxPoint x="99.57999999999998" y="167.175144212722" as="targetPoint" />
          </mxGeometry>
        </mxCell>
        <mxCell id="LEAcJbliSVRdhs6wyu_d-5" value="" style="endArrow=none;html=1;rounded=0;exitX=0.5;exitY=0;exitDx=0;exitDy=0;entryX=1;entryY=1;entryDx=0;entryDy=0;" edge="1" parent="LEAcJbliSVRdhs6wyu_d-88" source="LEAcJbliSVRdhs6wyu_d-6" target="LHpBmARA8mhgAHbVRTis-1">
          <mxGeometry width="50" height="50" relative="1" as="geometry">
            <mxPoint x="178" y="93.17514421272199" as="sourcePoint" />
            <mxPoint x="234" y="47.17514421272199" as="targetPoint" />
          </mxGeometry>
        </mxCell>
        <mxCell id="LEAcJbliSVRdhs6wyu_d-6" value="" style="ellipse;whiteSpace=wrap;html=1;aspect=fixed;fillColor=#f8cecc;strokeColor=#b85450;" vertex="1" parent="LEAcJbliSVRdhs6wyu_d-88">
          <mxGeometry x="170" y="107.17514421272199" width="20" height="20" as="geometry" />
        </mxCell>
        <mxCell id="LEAcJbliSVRdhs6wyu_d-7" value="" style="ellipse;whiteSpace=wrap;html=1;aspect=fixed;fillColor=#f8cecc;strokeColor=#b85450;" vertex="1" parent="LEAcJbliSVRdhs6wyu_d-88">
          <mxGeometry x="170" y="177.175144212722" width="20" height="20" as="geometry" />
        </mxCell>
        <mxCell id="LEAcJbliSVRdhs6wyu_d-8" value="" style="ellipse;whiteSpace=wrap;html=1;aspect=fixed;fillColor=#e1d5e7;strokeColor=#9673a6;" vertex="1" parent="LEAcJbliSVRdhs6wyu_d-88">
          <mxGeometry x="170" y="237.175144212722" width="20" height="20" as="geometry" />
        </mxCell>
        <mxCell id="LEAcJbliSVRdhs6wyu_d-9" value="" style="endArrow=none;html=1;rounded=0;exitX=0.5;exitY=0;exitDx=0;exitDy=0;" edge="1" parent="LEAcJbliSVRdhs6wyu_d-88" source="LEAcJbliSVRdhs6wyu_d-7">
          <mxGeometry width="50" height="50" relative="1" as="geometry">
            <mxPoint x="223" y="190.175144212722" as="sourcePoint" />
            <mxPoint x="180" y="127.17514421272199" as="targetPoint" />
          </mxGeometry>
        </mxCell>
        <mxCell id="LEAcJbliSVRdhs6wyu_d-10" value="" style="endArrow=none;html=1;rounded=0;" edge="1" parent="LEAcJbliSVRdhs6wyu_d-88">
          <mxGeometry width="50" height="50" relative="1" as="geometry">
            <mxPoint x="180" y="237.175144212722" as="sourcePoint" />
            <mxPoint x="179.57999999999998" y="197.175144212722" as="targetPoint" />
          </mxGeometry>
        </mxCell>
        <mxCell id="LEAcJbliSVRdhs6wyu_d-11" value="" style="ellipse;whiteSpace=wrap;html=1;aspect=fixed;fillColor=#fff2cc;strokeColor=#d6b656;" vertex="1" parent="LEAcJbliSVRdhs6wyu_d-88">
          <mxGeometry x="50" y="287.175144212722" width="20" height="20" as="geometry" />
        </mxCell>
        <mxCell id="LEAcJbliSVRdhs6wyu_d-12" value="" style="endArrow=none;html=1;rounded=0;entryX=1;entryY=1;entryDx=0;entryDy=0;exitX=0;exitY=0;exitDx=0;exitDy=0;" edge="1" parent="LEAcJbliSVRdhs6wyu_d-88" source="LEAcJbliSVRdhs6wyu_d-11" target="LHpBmARA8mhgAHbVRTis-4">
          <mxGeometry width="50" height="50" relative="1" as="geometry">
            <mxPoint x="30.419999999999987" y="277.175144212722" as="sourcePoint" />
            <mxPoint x="29.99999999999997" y="237.175144212722" as="targetPoint" />
          </mxGeometry>
        </mxCell>
        <mxCell id="LEAcJbliSVRdhs6wyu_d-13" value="" style="endArrow=none;html=1;rounded=0;entryX=0;entryY=1;entryDx=0;entryDy=0;exitX=1;exitY=0;exitDx=0;exitDy=0;" edge="1" parent="LEAcJbliSVRdhs6wyu_d-88" source="LEAcJbliSVRdhs6wyu_d-11" target="LHpBmARA8mhgAHbVRTis-6">
          <mxGeometry width="50" height="50" relative="1" as="geometry">
            <mxPoint x="120" y="307.175144212722" as="sourcePoint" />
            <mxPoint x="94" y="241.175144212722" as="targetPoint" />
          </mxGeometry>
        </mxCell>
        <mxCell id="LEAcJbliSVRdhs6wyu_d-14" value="" style="endArrow=none;html=1;rounded=0;entryX=0.5;entryY=1;entryDx=0;entryDy=0;" edge="1" parent="LEAcJbliSVRdhs6wyu_d-88" source="LEAcJbliSVRdhs6wyu_d-15" target="LEAcJbliSVRdhs6wyu_d-11">
          <mxGeometry width="50" height="50" relative="1" as="geometry">
            <mxPoint x="60" y="337.175144212722" as="sourcePoint" />
            <mxPoint x="56" y="317.175144212722" as="targetPoint" />
          </mxGeometry>
        </mxCell>
        <mxCell id="LEAcJbliSVRdhs6wyu_d-20" value="" style="shape=curlyBracket;whiteSpace=wrap;html=1;rounded=1;flipH=1;labelPosition=right;verticalLabelPosition=middle;align=left;verticalAlign=middle;rotation=90;" vertex="1" parent="LEAcJbliSVRdhs6wyu_d-88">
          <mxGeometry x="47.5" y="209.675144212722" width="20" height="80" as="geometry" />
        </mxCell>
        <mxCell id="LEAcJbliSVRdhs6wyu_d-21" value="&lt;font face=&quot;Verdana&quot;&gt;Siblings&lt;/font&gt;" style="text;html=1;align=center;verticalAlign=middle;whiteSpace=wrap;rounded=0;fillColor=default;" vertex="1" parent="LEAcJbliSVRdhs6wyu_d-88">
          <mxGeometry x="36.25" y="257.175144212722" width="42.5" height="20" as="geometry" />
        </mxCell>
        <mxCell id="LEAcJbliSVRdhs6wyu_d-26" value="" style="rounded=1;whiteSpace=wrap;html=1;fillColor=none;rotation=-225;" vertex="1" parent="LEAcJbliSVRdhs6wyu_d-88">
          <mxGeometry x="20" y="47.17514421272199" width="150" height="40" as="geometry" />
        </mxCell>
        <mxCell id="LEAcJbliSVRdhs6wyu_d-27" value="" style="rounded=1;whiteSpace=wrap;html=1;fillColor=none;rotation=90;" vertex="1" parent="LEAcJbliSVRdhs6wyu_d-88">
          <mxGeometry x="123.13" y="130.30514421272198" width="113.75" height="39.37" as="geometry" />
        </mxCell>
        <mxCell id="LEAcJbliSVRdhs6wyu_d-29" value="" style="ellipse;whiteSpace=wrap;html=1;aspect=fixed;fillColor=#fff2cc;strokeColor=#d6b656;" vertex="1" parent="LEAcJbliSVRdhs6wyu_d-88">
          <mxGeometry x="50" y="366.175144212722" width="20" height="20" as="geometry" />
        </mxCell>
        <mxCell id="LEAcJbliSVRdhs6wyu_d-30" value="" style="endArrow=none;html=1;rounded=0;entryX=0.5;entryY=1;entryDx=0;entryDy=0;" edge="1" parent="LEAcJbliSVRdhs6wyu_d-88" target="LEAcJbliSVRdhs6wyu_d-15">
          <mxGeometry width="50" height="50" relative="1" as="geometry">
            <mxPoint x="60" y="337.175144212722" as="sourcePoint" />
            <mxPoint x="60" y="307.175144212722" as="targetPoint" />
          </mxGeometry>
        </mxCell>
        <mxCell id="LEAcJbliSVRdhs6wyu_d-15" value="" style="ellipse;whiteSpace=wrap;html=1;aspect=fixed;fillColor=#fff2cc;strokeColor=#d6b656;" vertex="1" parent="LEAcJbliSVRdhs6wyu_d-88">
          <mxGeometry x="50" y="327.175144212722" width="20" height="20" as="geometry" />
        </mxCell>
        <mxCell id="LEAcJbliSVRdhs6wyu_d-31" value="" style="endArrow=none;html=1;rounded=0;entryX=0.5;entryY=1;entryDx=0;entryDy=0;exitX=0.5;exitY=0;exitDx=0;exitDy=0;" edge="1" parent="LEAcJbliSVRdhs6wyu_d-88" source="LEAcJbliSVRdhs6wyu_d-29" target="LEAcJbliSVRdhs6wyu_d-15">
          <mxGeometry width="50" height="50" relative="1" as="geometry">
            <mxPoint x="59.58000000000001" y="367.175144212722" as="sourcePoint" />
            <mxPoint x="59.58000000000001" y="347.175144212722" as="targetPoint" />
          </mxGeometry>
        </mxCell>
        <mxCell id="LEAcJbliSVRdhs6wyu_d-89" value="&lt;font face=&quot;Verdana&quot;&gt;Load balancing&lt;/font&gt;" style="text;html=1;align=center;verticalAlign=middle;whiteSpace=wrap;rounded=0;fillColor=default;" vertex="1" parent="1">
          <mxGeometry x="680" y="820" width="140" height="20" as="geometry" />
        </mxCell>
      </root>
    </mxGraphModel>
  </diagram>
</mxfile>
